<svg width="22" height="23" viewBox="0 0 22 23" fill="none" xmlns="http://www.w3.org/2000/svg">
<path d="M19 2.62927H3C2.46957 2.62927 1.96086 2.83999 1.58579 3.21506C1.21071 3.59013 1 4.09884 1 4.62927V18.6293C1 19.1597 1.21071 19.6684 1.58579 20.0435C1.96086 20.4186 2.46957 20.6293 3 20.6293H19C19.5304 20.6293 20.0391 20.4186 20.4142 20.0435C20.7893 19.6684 21 19.1597 21 18.6293V4.62927C21 4.09884 20.7893 3.59013 20.4142 3.21506C20.0391 2.83999 19.5304 2.62927 19 2.62927ZM10 16.6293H4V14.6293H10V16.6293ZM18 12.6293H4V10.6293H18V12.6293ZM18 8.62927H4V6.62927H18V8.62927Z" fill="#6F6F6F"/>
</svg>
