<svg width="22" height="23" viewBox="0 0 22 23" fill="none" xmlns="http://www.w3.org/2000/svg">
<path d="M18.6 3.07935H3.4C2.89609 3.07935 2.41282 3.27952 2.0565 3.63584C1.70018 3.99216 1.5 4.47543 1.5 4.97935V18.2793C1.5 18.7833 1.70018 19.2665 2.0565 19.6228C2.41282 19.9792 2.89609 20.1793 3.4 20.1793H18.6C19.1039 20.1793 19.5872 19.9792 19.9435 19.6228C20.2998 19.2665 20.5 18.7833 20.5 18.2793V4.97935C20.5 4.47543 20.2998 3.99216 19.9435 3.63584C19.5872 3.27952 19.1039 3.07935 18.6 3.07935ZM10.05 16.3793H4.35V14.4793H10.05V16.3793ZM17.65 12.5793H4.35V10.6793H17.65V12.5793ZM17.65 8.77935H4.35V6.87935H17.65V8.77935Z" fill="#6F6F6F"/>
</svg>
