<svg width="25" height="26" viewBox="0 0 25 26" fill="none" xmlns="http://www.w3.org/2000/svg">
<path d="M23.75 18.625V7.375C23.75 6.3375 22.9125 5.5 21.875 5.5H4.36249C3.32499 5.5 2.48749 6.3375 2.48749 7.375V18.625C2.48749 19.6625 3.32499 20.5 4.36249 20.5H21.875C22.9125 20.5 23.75 19.6625 23.75 18.625ZM22.1125 7.2375C22.525 7.65 22.3 8.075 22.075 8.2875L17 12.9375L21.875 18.0125C22.025 18.1875 22.125 18.4625 21.95 18.65C21.7875 18.85 21.4125 18.8375 21.25 18.7125L15.7875 14.05L13.1125 16.4875L10.45 14.05L4.98749 18.7125C4.82499 18.8375 4.44999 18.85 4.28749 18.65C4.11249 18.4625 4.21249 18.1875 4.36249 18.0125L9.23749 12.9375L4.16249 8.2875C3.93749 8.075 3.71249 7.65 4.12499 7.2375C4.53749 6.825 4.96249 7.025 5.31249 7.325L13.1125 13.625L20.925 7.325C21.275 7.025 21.7 6.825 22.1125 7.2375Z" fill="#5D5D5D"/>
</svg>
