<svg width="25" height="24" viewBox="0 0 25 24" fill="none" xmlns="http://www.w3.org/2000/svg">
<path d="M19.5 2H5.5C4.70435 2 3.94129 2.31607 3.37868 2.87868C2.81607 3.44129 2.5 4.20435 2.5 5V6.17C2.49986 6.58294 2.58497 6.99147 2.75 7.37V7.43C2.89107 7.75109 3.09121 8.04281 3.34 8.29L9.5 14.41V21C9.49966 21.1699 9.54264 21.3372 9.62487 21.4859C9.70711 21.6346 9.82589 21.7599 9.97 21.85C10.1291 21.9486 10.3128 22.0006 10.5 22C10.6565 21.9991 10.8107 21.9614 10.95 21.89L14.95 19.89C15.1149 19.8069 15.2536 19.6798 15.3507 19.5227C15.4478 19.3656 15.4994 19.1847 15.5 19V14.41L21.62 8.29C21.8688 8.04281 22.0689 7.75109 22.21 7.43V7.37C22.3888 6.99443 22.4876 6.58578 22.5 6.17V5C22.5 4.20435 22.1839 3.44129 21.6213 2.87868C21.0587 2.31607 20.2956 2 19.5 2ZM13.79 13.29C13.6973 13.3834 13.624 13.4943 13.5742 13.6161C13.5245 13.7379 13.4992 13.8684 13.5 14V18.38L11.5 19.38V14C11.5008 13.8684 11.4755 13.7379 11.4258 13.6161C11.376 13.4943 11.3027 13.3834 11.21 13.29L5.91 8H19.09L13.79 13.29ZM20.5 6H4.5V5C4.5 4.73478 4.60536 4.48043 4.79289 4.29289C4.98043 4.10536 5.23478 4 5.5 4H19.5C19.7652 4 20.0196 4.10536 20.2071 4.29289C20.3946 4.48043 20.5 4.73478 20.5 5V6Z" fill="white"/>
</svg>
