<svg width="30" height="30" viewBox="0 0 30 30" fill="none" xmlns="http://www.w3.org/2000/svg">
<path d="M10.0224 27.1396C10.277 27.3768 10.6137 27.5059 10.9616 27.4998C11.3095 27.4937 11.6414 27.3527 11.8875 27.1067C12.1335 26.8606 12.2744 26.5287 12.2806 26.1808C12.2867 25.8329 12.1576 25.4962 11.9204 25.2417L8.8407 22.162H24.4001C24.7563 22.162 25.0979 22.0205 25.3497 21.7687C25.6015 21.5168 25.743 21.1753 25.743 20.8191C25.743 20.463 25.6015 20.1214 25.3497 19.8696C25.0979 19.6177 24.7563 19.4762 24.4001 19.4762H8.8407L11.9204 16.3966C12.1576 16.142 12.2867 15.8053 12.2806 15.4574C12.2744 15.1095 12.1335 14.7776 11.8875 14.5316C11.6414 14.2855 11.3095 14.1446 10.9616 14.1385C10.6137 14.1323 10.277 14.2615 10.0224 14.4987L4.65093 19.8702C4.39945 20.1219 4.2582 20.4633 4.2582 20.8191C4.2582 21.175 4.39945 21.5163 4.65093 21.7681L10.0224 27.1396ZM19.9776 15.5013C19.8547 15.6333 19.7064 15.7391 19.5417 15.8125C19.377 15.8859 19.1991 15.9254 19.0188 15.9285C18.8385 15.9317 18.6594 15.8986 18.4922 15.831C18.325 15.7635 18.1731 15.6629 18.0456 15.5354C17.9181 15.4079 17.8175 15.256 17.75 15.0888C17.6825 14.9216 17.6493 14.7425 17.6525 14.5622C17.6557 14.3819 17.6951 14.2041 17.7685 14.0393C17.8419 13.8746 17.9477 13.7263 18.0797 13.6034L21.1593 10.5238H5.59989C5.24374 10.5238 4.90218 10.3823 4.65034 10.1304C4.3985 9.87859 4.25702 9.53703 4.25702 9.18088C4.25702 8.82472 4.3985 8.48316 4.65034 8.23132C4.90218 7.97948 5.24374 7.838 5.59989 7.838H21.1593L18.0797 4.75834C17.8425 4.50378 17.7133 4.16708 17.7195 3.81918C17.7256 3.47129 17.8665 3.13936 18.1126 2.89332C18.3586 2.64728 18.6906 2.50635 19.0384 2.50021C19.3863 2.49407 19.723 2.62321 19.9776 2.86041L25.3491 8.23191C25.6006 8.4837 25.7418 8.82501 25.7418 9.18088C25.7418 9.53674 25.6006 9.87805 25.3491 10.1298L19.9776 15.5013Z" fill="white"/>
</svg>
