<svg width="33" height="32" viewBox="0 0 33 32" fill="none" xmlns="http://www.w3.org/2000/svg">
<rect x="1.5" y="1" width="30" height="30" rx="15" fill="white"/>
<rect x="1.5" y="1" width="30" height="30" rx="15" stroke="#FAFAFA" stroke-width="2"/>
<path d="M13.0544 5.60317C10.7848 6.37469 8.8276 7.83908 7.47014 9.78122C6.11268 11.7234 5.42654 14.0409 5.51252 16.3934C5.5985 18.7459 6.45206 21.0094 7.94783 22.8515C9.44359 24.6935 11.5027 26.0169 13.8228 26.6273C15.7037 27.1029 17.6743 27.1238 19.5653 26.6882C21.2783 26.3111 22.862 25.5046 24.1614 24.3475C25.5138 23.1065 26.4954 21.5278 27.0007 19.781C27.5498 17.8814 27.6475 15.8839 27.2864 13.9415H16.7242V18.2351H22.8411C22.7189 18.9198 22.4569 19.5734 22.0709 20.1567C21.6849 20.7399 21.1827 21.2409 20.5945 21.6295C19.8477 22.1139 19.0056 22.4397 18.1226 22.586C17.2369 22.7474 16.3286 22.7474 15.4429 22.586C14.5453 22.4043 13.6961 22.0413 12.9497 21.52C11.7503 20.688 10.8498 19.5061 10.3765 18.1429C9.89544 16.7541 9.89544 15.2486 10.3765 13.8598C10.7134 12.8864 11.2703 12 12.0056 11.267C12.8471 10.4127 13.9124 9.80208 15.0848 9.50207C16.2571 9.20207 17.4911 9.22428 18.6514 9.56628C19.5578 9.83882 20.3867 10.3152 21.0719 10.9575C21.7616 10.2851 22.4501 9.61092 23.1375 8.93504C23.4924 8.57159 23.8793 8.22554 24.2289 7.8534C23.1828 6.8996 21.955 6.15738 20.6158 5.66925C18.177 4.80148 15.5086 4.77816 13.0544 5.60317Z" fill="white"/>
<path d="M13.0544 5.60291C15.5084 4.77735 18.1768 4.80006 20.6158 5.66726C21.9553 6.15871 23.1825 6.9045 24.2271 7.86184C23.8722 8.23398 23.4977 8.58177 23.1357 8.94348C22.4472 9.61704 21.7592 10.2883 21.0719 10.9572C20.3867 10.315 19.5578 9.83857 18.6514 9.56603C17.4915 9.22283 16.2575 9.19933 15.0849 9.49811C13.9123 9.79689 12.8463 10.4064 12.0038 11.2598C11.2685 11.9928 10.7116 12.8791 10.3748 13.8526L6.6961 11.0615C8.01284 8.50276 10.2927 6.54548 13.0544 5.60291Z" fill="#E33629"/>
<path d="M5.72 13.8265C5.91758 12.8662 6.24585 11.9362 6.69601 11.0615L10.3747 13.8595C9.89359 15.2483 9.89359 16.7538 10.3747 18.1426C9.14906 19.0701 7.92283 20.0022 6.69601 20.9389C5.56942 18.7414 5.22584 16.2376 5.72 13.8265Z" fill="#F8BD00"/>
<path d="M16.7242 13.9396H27.2864C27.6475 15.882 27.5498 17.8795 27.0007 19.7791C26.4954 21.5259 25.5138 23.1046 24.1614 24.3456C22.9742 23.4379 21.7817 22.5371 20.5945 21.6294C21.1831 21.2403 21.6855 20.7388 22.0715 20.155C22.4576 19.5711 22.7193 18.9168 22.8411 18.2314H16.7242C16.7224 16.802 16.7242 15.3708 16.7242 13.9396Z" fill="#587DBD"/>
<path d="M6.69413 20.9389C7.92095 20.0115 9.14718 19.0794 10.3728 18.1426C10.847 19.5063 11.7488 20.6883 12.9495 21.5197C13.6983 22.0386 14.5493 22.3987 15.4481 22.577C16.3337 22.7384 17.2421 22.7384 18.1277 22.577C19.0108 22.4307 19.8528 22.1049 20.5997 21.6206C21.7869 22.5283 22.9794 23.4291 24.1666 24.3369C22.8674 25.4945 21.2836 26.3017 19.5704 26.6793C17.6795 27.1149 15.7088 27.094 13.8279 26.6184C12.3403 26.2292 10.9507 25.543 9.74639 24.6029C8.47177 23.611 7.43064 22.3612 6.69413 20.9389Z" fill="#319F43"/>
</svg>
