<svg width="22" height="23" viewBox="0 0 22 23" fill="none" xmlns="http://www.w3.org/2000/svg">
<path fill-rule="evenodd" clip-rule="evenodd" d="M1.5 11.1293C1.5 8.60971 2.50089 6.19335 4.28249 4.41176C6.06408 2.63016 8.48044 1.62927 11 1.62927C13.5196 1.62927 15.9359 2.63016 17.7175 4.41176C19.4991 6.19335 20.5 8.60971 20.5 11.1293C20.5 13.6488 19.4991 16.0652 17.7175 17.8468C15.9359 19.6284 13.5196 20.6293 11 20.6293C8.48044 20.6293 6.06408 19.6284 4.28249 17.8468C2.50089 16.0652 1.5 13.6488 1.5 11.1293ZM11.6786 5.7007V10.8483L15.5519 14.7203L14.591 15.6811L10.3214 11.4102V5.7007H11.6786ZM11.6786 4.34356V2.98642H10.3214V4.34356H11.6786ZM11.6786 19.2721V17.915H10.3214V19.2721H11.6786ZM17.7857 10.4507H19.1429V11.8078H17.7857V10.4507ZM4.21429 10.4507H2.85714V11.8078H4.21429V10.4507Z" fill="#6F6F6F"/>
</svg>
