<svg width="20" height="21" viewBox="0 0 20 21" fill="none" xmlns="http://www.w3.org/2000/svg">
<path d="M8.33333 3.12927H3.33333C3.11232 3.12927 2.90036 3.21707 2.74408 3.37335C2.5878 3.52963 2.5 3.74159 2.5 3.96261V8.96261C2.5 9.18362 2.5878 9.39558 2.74408 9.55186C2.90036 9.70814 3.11232 9.79594 3.33333 9.79594H8.33333C8.55435 9.79594 8.76631 9.70814 8.92259 9.55186C9.07887 9.39558 9.16667 9.18362 9.16667 8.96261V3.96261C9.16667 3.74159 9.07887 3.52963 8.92259 3.37335C8.76631 3.21707 8.55435 3.12927 8.33333 3.12927ZM16.6667 3.12927H11.6667C11.4457 3.12927 11.2337 3.21707 11.0774 3.37335C10.9211 3.52963 10.8333 3.74159 10.8333 3.96261V8.96261C10.8333 9.18362 10.9211 9.39558 11.0774 9.55186C11.2337 9.70814 11.4457 9.79594 11.6667 9.79594H16.6667C16.8877 9.79594 17.0996 9.70814 17.2559 9.55186C17.4122 9.39558 17.5 9.18362 17.5 8.96261V3.96261C17.5 3.74159 17.4122 3.52963 17.2559 3.37335C17.0996 3.21707 16.8877 3.12927 16.6667 3.12927ZM8.33333 11.4626H3.33333C3.11232 11.4626 2.90036 11.5504 2.74408 11.7067C2.5878 11.863 2.5 12.0749 2.5 12.2959V17.2959C2.5 17.517 2.5878 17.7289 2.74408 17.8852C2.90036 18.0415 3.11232 18.1293 3.33333 18.1293H8.33333C8.55435 18.1293 8.76631 18.0415 8.92259 17.8852C9.07887 17.7289 9.16667 17.517 9.16667 17.2959V12.2959C9.16667 12.0749 9.07887 11.863 8.92259 11.7067C8.76631 11.5504 8.55435 11.4626 8.33333 11.4626ZM14.1667 11.4626C14.8188 11.4626 15.4567 11.6539 16.0012 12.0128C16.5457 12.3718 16.973 12.8826 17.2301 13.4819C17.4872 14.0813 17.5628 14.7429 17.4476 15.3848C17.3324 16.0267 17.0314 16.6207 16.5819 17.0933C16.1324 17.5658 15.5542 17.8961 14.9188 18.0433C14.2835 18.1905 13.6189 18.148 13.0075 17.9212C12.396 17.6944 11.8645 17.2932 11.4788 16.7673C11.0931 16.2414 10.8701 15.614 10.8375 14.9626L10.8333 14.7959L10.8375 14.6293C10.8803 13.7751 11.2497 12.9701 11.8693 12.3807C12.489 11.7913 13.3115 11.4626 14.1667 11.4626Z" fill="#5D5D5D"/>
</svg>
