<svg width="25" height="25" viewBox="0 0 25 25" fill="none" xmlns="http://www.w3.org/2000/svg">
<g clip-path="url(#clip0_276_670)">
<path fill-rule="evenodd" clip-rule="evenodd" d="M2.94521 0.797178C3.21862 0.524179 3.54692 0.312403 3.90837 0.175883C4.26982 0.0393643 4.65615 -0.0187805 5.04177 0.00530214C5.42739 0.0293848 5.80349 0.135145 6.14514 0.315574C6.48679 0.496004 6.7862 0.746982 7.02352 1.05188L9.82833 4.65517C10.3424 5.31613 10.5237 6.17711 10.3205 6.98965L9.46582 10.4117C9.42194 10.5889 9.42448 10.7745 9.47319 10.9505C9.52191 11.1265 9.61517 11.287 9.74396 11.4164L13.5832 15.2557C13.7128 15.3847 13.8735 15.4781 14.0498 15.5268C14.2261 15.5756 14.412 15.578 14.5895 15.5338L18.01 14.6791C18.411 14.5794 18.8294 14.5719 19.2337 14.6571C19.638 14.7424 20.0178 14.9182 20.3444 15.1713L23.9477 17.9745C25.2431 18.9824 25.3619 20.8965 24.2024 22.0544L22.5867 23.6701C21.4304 24.8264 19.7022 25.3342 18.0912 24.767C13.9671 23.3179 10.2229 20.9571 7.13759 17.8605C4.04115 14.7756 1.68039 11.032 0.23102 6.9084C-0.334631 5.29895 0.173205 3.56918 1.32951 2.41288L2.94521 0.797178ZM19.5319 1.56128C19.7391 1.56128 19.9378 1.64359 20.0844 1.79011C20.2309 1.93663 20.3132 2.13535 20.3132 2.34256V4.68642H22.657C22.8643 4.68642 23.063 4.76873 23.2095 4.91525C23.356 5.06177 23.4383 5.26049 23.4383 5.4677C23.4383 5.67491 23.356 5.87364 23.2095 6.02016C23.063 6.16668 22.8643 6.24899 22.657 6.24899H20.3132V8.59285C20.3132 8.80006 20.2309 8.99878 20.0844 9.1453C19.9378 9.29182 19.7391 9.37413 19.5319 9.37413C19.3247 9.37413 19.126 9.29182 18.9795 9.1453C18.8329 8.99878 18.7506 8.80006 18.7506 8.59285V6.24899H16.4068C16.1996 6.24899 16.0008 6.16668 15.8543 6.02016C15.7078 5.87364 15.6255 5.67491 15.6255 5.4677C15.6255 5.26049 15.7078 5.06177 15.8543 4.91525C16.0008 4.76873 16.1996 4.68642 16.4068 4.68642H18.7506V2.34256C18.7506 2.13535 18.8329 1.93663 18.9795 1.79011C19.126 1.64359 19.3247 1.56128 19.5319 1.56128Z" fill="#6F6F6F"/>
</g>
<defs>
<clipPath id="clip0_276_670">
<rect width="25" height="25" fill="white"/>
</clipPath>
</defs>
</svg>
