<svg width="22" height="23" viewBox="0 0 22 23" fill="none" xmlns="http://www.w3.org/2000/svg">
<path fill-rule="evenodd" clip-rule="evenodd" d="M4.88541 3.84023C5.06038 3.66553 5.27048 3.53 5.50179 3.44263C5.7331 3.35527 5.98033 3.31806 6.22711 3.33347C6.47389 3.34888 6.71457 3.41656 6.93321 3.53203C7.15185 3.6475 7.34346 3.80811 7.49533 4.00323L9.29027 6.30916C9.61926 6.73214 9.73526 7.28312 9.60526 7.80311L9.05828 9.99304C9.0302 10.1065 9.03182 10.2252 9.063 10.3379C9.09418 10.4505 9.15386 10.5532 9.23628 10.636L11.6932 13.0929C11.7761 13.1755 11.879 13.2353 11.9918 13.2665C12.1046 13.2977 12.2236 13.2992 12.3372 13.2709L14.5261 12.724C14.7827 12.6602 15.0505 12.6554 15.3092 12.7099C15.568 12.7645 15.811 12.877 16.0201 13.0389L18.326 14.8329C19.155 15.4779 19.231 16.7028 18.489 17.4438L17.455 18.4778C16.715 19.2178 15.6091 19.5427 14.5781 19.1798C11.9389 18.2524 9.54281 16.7416 7.56833 14.7599C5.58676 12.7857 4.07599 10.39 3.14847 7.75111C2.78648 6.72114 3.11147 5.61418 3.85144 4.8742L4.88541 3.84023ZM15.5001 4.32922C15.6327 4.32922 15.7599 4.38189 15.8536 4.47566C15.9474 4.56942 16.0001 4.6966 16.0001 4.8292V6.32915H17.5C17.6326 6.32915 17.7598 6.38183 17.8536 6.4756C17.9473 6.56936 18 6.69653 18 6.82914C18 6.96174 17.9473 7.08892 17.8536 7.18268C17.7598 7.27645 17.6326 7.32912 17.5 7.32912H16.0001V8.82908C16.0001 8.96168 15.9474 9.08885 15.8536 9.18262C15.7599 9.27638 15.6327 9.32906 15.5001 9.32906C15.3675 9.32906 15.2403 9.27638 15.1465 9.18262C15.0528 9.08885 15.0001 8.96168 15.0001 8.82908V7.32912H13.5001C13.3675 7.32912 13.2404 7.27645 13.1466 7.18268C13.0528 7.08892 13.0002 6.96174 13.0002 6.82914C13.0002 6.69653 13.0528 6.56936 13.1466 6.4756C13.2404 6.38183 13.3675 6.32915 13.5001 6.32915H15.0001V4.8292C15.0001 4.6966 15.0528 4.56942 15.1465 4.47566C15.2403 4.38189 15.3675 4.32922 15.5001 4.32922Z" fill="#6F6F6F"/>
</svg>
