<svg width="198" height="198" viewBox="0 0 198 198" fill="none" xmlns="http://www.w3.org/2000/svg">
<g filter="url(#filter0_d_1_98)">
<rect x="24" y="8" width="150" height="150" rx="75" fill="white"/>
<path d="M98.7129 16.5C135.281 16.5001 164.925 46.1448 164.925 82.7129C164.925 119.281 135.281 148.925 98.7129 148.925C62.1448 148.925 32.5001 119.281 32.5 82.7129C32.5 46.1447 62.1447 16.5 98.7129 16.5Z" fill="url(#paint0_linear_1_98)" stroke="white" stroke-width="15"/>
<rect x="-3.53553" width="52.4979" height="20.8326" transform="matrix(0.707107 0.707107 0.707107 -0.707107 119.183 117.914)" fill="url(#paint1_linear_1_98)" stroke="white" stroke-width="5"/>
<ellipse cx="98.7126" cy="82.8445" rx="48.1575" ry="47.4979" fill="white"/>
<circle cx="98.7126" cy="82.7126" r="42.88" fill="url(#paint2_linear_1_98)"/>
<circle cx="98.8446" cy="82.8446" r="30.3459" fill="white"/>
<circle cx="98.8446" cy="82.8445" r="26.3877" fill="url(#paint3_linear_1_98)"/>
<circle cx="96.8655" cy="85.3514" r="27.0474" fill="white"/>
<circle cx="61.1102" cy="120.051" r="13.3326" fill="url(#paint4_linear_1_98)" stroke="white" stroke-width="5"/>
<circle cx="61.1102" cy="45.9018" r="13.3326" fill="url(#paint5_linear_1_98)" stroke="white" stroke-width="5"/>
<circle cx="136.051" cy="45.9018" r="13.3326" fill="url(#paint6_linear_1_98)" stroke="white" stroke-width="5"/>
</g>
<defs>
<filter id="filter0_d_1_98" x="0" y="0" width="198" height="198" filterUnits="userSpaceOnUse" color-interpolation-filters="sRGB">
<feFlood flood-opacity="0" result="BackgroundImageFix"/>
<feColorMatrix in="SourceAlpha" type="matrix" values="0 0 0 0 0 0 0 0 0 0 0 0 0 0 0 0 0 0 127 0" result="hardAlpha"/>
<feMorphology radius="8" operator="erode" in="SourceAlpha" result="effect1_dropShadow_1_98"/>
<feOffset dy="16"/>
<feGaussianBlur stdDeviation="16"/>
<feComposite in2="hardAlpha" operator="out"/>
<feColorMatrix type="matrix" values="0 0 0 0 0.0470588 0 0 0 0 0.0470588 0 0 0 0 0.0509804 0 0 0 0.4 0"/>
<feBlend mode="normal" in2="BackgroundImageFix" result="effect1_dropShadow_1_98"/>
<feBlend mode="normal" in="SourceGraphic" in2="effect1_dropShadow_1_98" result="shape"/>
</filter>
<linearGradient id="paint0_linear_1_98" x1="19.8473" y1="-3.13475" x2="19.8473" y2="114.29" gradientUnits="userSpaceOnUse">
<stop stop-color="#FFCF21"/>
<stop offset="1" stop-color="#FF5C00"/>
</linearGradient>
<linearGradient id="paint1_linear_1_98" x1="47.4979" y1="7.91631" x2="0" y2="7.91631" gradientUnits="userSpaceOnUse">
<stop stop-color="#002347"/>
<stop offset="1" stop-color="#003F7D"/>
</linearGradient>
<linearGradient id="paint2_linear_1_98" x1="98.7126" y1="39.8326" x2="98.7126" y2="125.593" gradientUnits="userSpaceOnUse">
<stop stop-color="#0181FF"/>
<stop offset="1" stop-color="#002347"/>
</linearGradient>
<linearGradient id="paint3_linear_1_98" x1="98.8446" y1="56.4568" x2="98.8446" y2="109.232" gradientUnits="userSpaceOnUse">
<stop stop-color="#0181FF"/>
<stop offset="1" stop-color="#002347"/>
</linearGradient>
<linearGradient id="paint4_linear_1_98" x1="39.8431" y1="96.9013" x2="39.8431" y2="128.567" gradientUnits="userSpaceOnUse">
<stop stop-color="#FFCF21"/>
<stop offset="1" stop-color="#FF5C00"/>
</linearGradient>
<linearGradient id="paint5_linear_1_98" x1="39.8431" y1="22.7519" x2="39.8431" y2="54.4172" gradientUnits="userSpaceOnUse">
<stop stop-color="#FFCF21"/>
<stop offset="1" stop-color="#FF5C00"/>
</linearGradient>
<linearGradient id="paint6_linear_1_98" x1="114.784" y1="22.7519" x2="114.784" y2="54.4172" gradientUnits="userSpaceOnUse">
<stop stop-color="#FFCF21"/>
<stop offset="1" stop-color="#FF5C00"/>
</linearGradient>
</defs>
</svg>
