<svg width="16" height="17" viewBox="0 0 16 17" fill="none" xmlns="http://www.w3.org/2000/svg">
<path fill-rule="evenodd" clip-rule="evenodd" d="M8 1.8667C6.67392 1.8667 5.40215 2.39348 4.46447 3.33117C3.52678 4.26885 3 5.54062 3 6.8667C3 8.0067 3.56 9.3547 4.377 10.8007C5.204 12.2637 6.344 13.9077 7.593 15.6577L8 16.2277L8.407 15.6577C9.657 13.9077 10.796 12.2637 11.623 10.8007C12.44 9.3547 13 8.0067 13 6.8667C13 6.21009 12.8707 5.55991 12.6194 4.95328C12.3681 4.34665 11.9998 3.79546 11.5355 3.33117C11.0712 2.86687 10.52 2.49858 9.91342 2.2473C9.30679 1.99603 8.65661 1.8667 8 1.8667ZM8 4.3667C7.33696 4.3667 6.70107 4.63009 6.23223 5.09893C5.76339 5.56777 5.5 6.20366 5.5 6.8667C5.5 7.52974 5.76339 8.16563 6.23223 8.63447C6.70107 9.10331 7.33696 9.3667 8 9.3667C8.66304 9.3667 9.29893 9.10331 9.76777 8.63447C10.2366 8.16563 10.5 7.52974 10.5 6.8667C10.5 6.20366 10.2366 5.56777 9.76777 5.09893C9.29893 4.63009 8.66304 4.3667 8 4.3667Z" fill="#C64A3E"/>
</svg>
