<svg width="24" height="25" viewBox="0 0 24 25" fill="none" xmlns="http://www.w3.org/2000/svg">
<path fill-rule="evenodd" clip-rule="evenodd" d="M11.9999 1.62927C10.0608 1.62927 8.20112 2.39959 6.82996 3.77075C5.45879 5.14192 4.68848 7.00162 4.68848 8.94074C4.68848 10.6078 5.50736 12.5789 6.70205 14.6934C7.91137 16.8327 9.57839 19.2368 11.4048 21.7958L11.9999 22.6293L12.5951 21.7958C14.423 19.2368 16.0885 16.8327 17.2978 14.6934C18.4925 12.5789 19.3114 10.6078 19.3114 8.94074C19.3114 7.98059 19.1223 7.02983 18.7549 6.14276C18.3874 5.25569 17.8489 4.44968 17.1699 3.77075C16.491 3.09182 15.685 2.55326 14.7979 2.18582C13.9109 1.81839 12.9601 1.62927 11.9999 1.62927ZM11.9999 5.28501C11.0304 5.28501 10.1005 5.67016 9.41495 6.35575C8.72937 7.04133 8.34421 7.97118 8.34421 8.94074C8.34421 9.9103 8.72937 10.8402 9.41495 11.5257C10.1005 12.2113 11.0304 12.5965 11.9999 12.5965C12.9695 12.5965 13.8994 12.2113 14.5849 11.5257C15.2705 10.8402 15.6557 9.9103 15.6557 8.94074C15.6557 7.97118 15.2705 7.04133 14.5849 6.35575C13.8994 5.67016 12.9695 5.28501 11.9999 5.28501Z" fill="#6F6F6F"/>
</svg>
