<svg width="24" height="25" viewBox="0 0 24 25" fill="none" xmlns="http://www.w3.org/2000/svg">
<path d="M6 17.1294C6 15.1294 10 14.0294 12 14.0294C14 14.0294 18 15.1294 18 17.1294V18.1294H6M15 9.12939C15 9.92504 14.6839 10.6881 14.1213 11.2507C13.5587 11.8133 12.7956 12.1294 12 12.1294C11.2044 12.1294 10.4413 11.8133 9.87868 11.2507C9.31607 10.6881 9 9.92504 9 9.12939C9 8.33375 9.31607 7.57068 9.87868 7.00807C10.4413 6.44547 11.2044 6.12939 12 6.12939C12.7956 6.12939 13.5587 6.44547 14.1213 7.00807C14.6839 7.57068 15 8.33375 15 9.12939ZM3 5.12939V19.1294C3 19.6598 3.21071 20.1685 3.58579 20.5436C3.96086 20.9187 4.46957 21.1294 5 21.1294H19C19.5304 21.1294 20.0391 20.9187 20.4142 20.5436C20.7893 20.1685 21 19.6598 21 19.1294V5.12939C21 4.59896 20.7893 4.09025 20.4142 3.71518C20.0391 3.34011 19.5304 3.12939 19 3.12939H5C4.46957 3.12939 3.96086 3.34011 3.58579 3.71518C3.21071 4.09025 3 4.59896 3 5.12939Z" fill="#6F6F6F"/>
</svg>
