<svg width="19" height="24" viewBox="0 0 19 24" fill="none" xmlns="http://www.w3.org/2000/svg">
<path d="M16.4336 11.4797V7.67032C16.4336 3.84688 13.3242 0.736725 9.5 0.736725C5.67578 0.736725 2.56641 3.8461 2.56641 7.67032V11.4797H0.939064V23.2633H18.0609V11.4797H16.4336ZM5.30078 7.67032C5.30078 5.35469 7.1836 3.4711 9.5 3.4711C11.8164 3.4711 13.6992 5.35391 13.6992 7.67032V11.4797H5.30078V7.67032ZM11.275 20.5594H7.72422L8.67891 17.6945C8.36915 17.5424 8.10809 17.3067 7.92518 17.014C7.74227 16.7213 7.6448 16.3834 7.64375 16.0383C7.64375 15.5462 7.83924 15.0742 8.18721 14.7263C8.53517 14.3783 9.00712 14.1828 9.49922 14.1828C9.99132 14.1828 10.4633 14.3783 10.8112 14.7263C11.1592 15.0742 11.3547 15.5462 11.3547 16.0383C11.3547 16.7664 10.9313 17.3898 10.3203 17.6945L11.275 20.5594Z" fill="#5D5D5D"/>
</svg>
