<svg width="40" height="40" viewBox="0 0 40 40" fill="none" xmlns="http://www.w3.org/2000/svg">
<path d="M19.9366 33.3333C16.5521 33.3333 13.6016 32.2277 11.0849 30.0166C8.56937 27.8066 7.11382 25.0233 6.71826 21.6666H8.40326C8.85659 24.5333 10.1627 26.9166 12.3216 28.8166C14.4805 30.7166 17.0188 31.6666 19.9366 31.6666C23.1866 31.6666 25.9433 30.535 28.2066 28.2716C30.4699 26.0083 31.6021 23.2511 31.6033 20C31.6044 16.7488 30.4721 13.9916 28.2066 11.7283C25.941 9.46496 23.1844 8.33329 19.9366 8.33329C18.211 8.33329 16.5899 8.69774 15.0733 9.42663C13.5566 10.1544 12.2177 11.1572 11.0566 12.435H15.1916V14.1016H8.26993V7.18163H9.93659V11.1616C11.2255 9.74718 12.7355 8.64496 14.4666 7.85496C16.1977 7.06496 18.021 6.66885 19.9366 6.66663C21.7844 6.66663 23.5166 7.0144 25.1333 7.70996C26.7499 8.40551 28.1621 9.35774 29.3699 10.5666C30.5777 11.7755 31.5299 13.1877 32.2266 14.8033C32.9233 16.4188 33.271 18.1511 33.2699 20C33.2688 21.8488 32.921 23.5811 32.2266 25.1966C31.5322 26.8122 30.5799 28.2244 29.3699 29.4333C28.1599 30.6422 26.7477 31.5944 25.1333 32.29C23.5188 32.9855 21.7866 33.3333 19.9366 33.3333ZM25.2766 26.4233L19.1983 20.3466V11.6666H20.8649V19.6533L26.4549 25.2433L25.2766 26.4233Z" fill="#6F6F6F"/>
</svg>
