<svg width="22" height="23" viewBox="0 0 22 23" fill="none" xmlns="http://www.w3.org/2000/svg">
<path d="M20.0055 8.38005L20.0236 8.43151L20.0908 8.65387L20.1469 8.85344L20.1709 8.94458L20.2102 9.10958C20.7198 11.4088 20.3478 13.8156 19.1679 15.8538C17.9907 17.8982 16.0877 19.4253 13.8369 20.132L13.6781 20.1791L13.4833 20.2294L13.2016 20.2962C13.1021 20.3188 12.999 20.3207 12.8988 20.3018C12.7985 20.2828 12.7032 20.2434 12.6189 20.1859C12.5345 20.1285 12.4629 20.0543 12.4085 19.968C12.3541 19.8816 12.3181 19.785 12.3028 19.6841C12.2712 19.4771 12.3185 19.2657 12.4353 19.0919C12.5522 18.9181 12.73 18.7945 12.9337 18.7456L13.1604 18.6886C13.3018 18.6514 13.4234 18.6157 13.5253 18.5814C15.333 17.9711 16.8555 16.7217 17.8071 15.068C18.7642 13.4156 19.0844 11.4703 18.7075 9.5983L18.6804 9.47533L18.6443 9.33194L18.5991 9.16773L18.5449 8.98308C18.4841 8.78167 18.5013 8.56479 18.593 8.37545C18.6847 8.18611 18.8442 8.03813 19.0399 7.96087C19.1308 7.92495 19.2279 7.9073 19.3256 7.90892C19.4234 7.91055 19.5199 7.93142 19.6095 7.97035C19.6992 8.00928 19.7804 8.0655 19.8483 8.1358C19.9162 8.2061 19.9697 8.28909 20.0055 8.38005ZM2.90129 7.95498C2.91831 7.96021 2.93508 7.96598 2.95158 7.97226C3.14681 8.04835 3.30633 8.19501 3.39852 8.38318C3.49071 8.57135 3.50885 8.78728 3.44933 8.98819C3.37861 9.22626 3.32754 9.42439 3.29611 9.58258C2.92083 11.4531 3.24144 13.3964 4.19772 15.0472C5.1501 16.7024 6.67454 17.9524 8.48418 18.5621L8.6044 18.6002L8.67275 18.6199L8.82597 18.6615L9.09861 18.7287C9.30344 18.7769 9.48268 18.9002 9.60078 19.0744C9.71889 19.2485 9.76723 19.4607 9.73622 19.6688C9.70712 19.8639 9.6017 20.0395 9.44316 20.157C9.28462 20.2744 9.08594 20.324 8.89079 20.295L8.83657 20.2852L8.61029 20.2322L8.40993 20.1811L8.23472 20.132L8.15615 20.1084C5.90989 19.3998 4.01144 17.8739 2.83647 15.8325C1.6544 13.7908 1.28321 11.3793 1.79658 9.07658L1.82683 8.95087L1.86611 8.80355L1.94233 8.5423L1.97218 8.44408C2.00104 8.35093 2.04796 8.26437 2.11027 8.18936C2.17259 8.11434 2.24906 8.05234 2.33534 8.00688C2.42162 7.96142 2.51601 7.93341 2.61311 7.92444C2.71022 7.91546 2.80814 7.9261 2.90129 7.95498ZM11.0201 4.84355C14.4918 4.84355 17.3058 7.65758 17.3058 11.1293C17.3058 14.6009 14.4918 17.415 11.0201 17.415C7.5484 17.415 4.73436 14.6009 4.73436 11.1293C4.73436 7.65758 7.54879 4.84355 11.0201 4.84355ZM11.0201 6.41498C8.41661 6.41498 6.30579 8.5258 6.30579 11.1293C6.30579 13.7327 8.41661 15.8435 11.0201 15.8435C13.6239 15.8435 15.7344 13.7327 15.7344 11.1293C15.7344 8.5258 13.6239 6.41498 11.0201 6.41498ZM11.0201 1.70069C13.3794 1.6978 15.6535 2.58209 17.391 4.17805L17.4849 4.26723L17.593 4.37487L17.7148 4.50137L17.8507 4.64633C17.92 4.72116 17.9732 4.80948 18.0069 4.90577C18.0406 5.00207 18.0541 5.10427 18.0465 5.20601C18.039 5.30775 18.0105 5.40684 17.963 5.4971C17.9154 5.58736 17.8498 5.66686 17.7701 5.73062C17.6066 5.86163 17.3998 5.92643 17.1908 5.91217C16.9817 5.89791 16.7857 5.80563 16.6415 5.65362C16.5561 5.56326 16.4769 5.48246 16.4038 5.41123L16.2663 5.28001L16.2034 5.22383C14.7711 3.96347 12.9279 3.26944 11.0201 3.27212C9.11044 3.26935 7.26564 3.96458 5.83279 5.22698L5.788 5.26705L5.68861 5.36133L5.57586 5.4733L5.3814 5.67562C5.08283 5.99344 4.59018 6.02919 4.24879 5.75812C4.17223 5.69734 4.10839 5.62207 4.06093 5.53661C4.01347 5.45115 3.98331 5.35717 3.97219 5.26005C3.96106 5.16293 3.96918 5.06457 3.99608 4.97059C4.02298 4.87661 4.06814 4.78886 4.12897 4.71233L4.16433 4.67069L4.32343 4.50137L4.468 4.35287C4.53662 4.28399 4.6 4.2231 4.65815 4.17019C6.39451 2.5793 8.66471 1.69802 11.0197 1.70069" fill="#6F6F6F"/>
</svg>
