<svg width="22" height="23" viewBox="0 0 22 23" fill="none" xmlns="http://www.w3.org/2000/svg">
<path d="M7.625 13.5043C7.98967 13.5043 8.33941 13.3792 8.59727 13.1565C8.85513 12.9338 9 12.6317 9 12.3168C9 12.0018 8.85513 11.6998 8.59727 11.4771C8.33941 11.2544 7.98967 11.1293 7.625 11.1293C7.26033 11.1293 6.91059 11.2544 6.65273 11.4771C6.39487 11.6998 6.25 12.0018 6.25 12.3168C6.25 12.6317 6.39487 12.9338 6.65273 13.1565C6.91059 13.3792 7.26033 13.5043 7.625 13.5043ZM7.625 16.8293C7.98967 16.8293 8.33941 16.7042 8.59727 16.4815C8.85513 16.2588 9 15.9567 9 15.6418C9 15.3268 8.85513 15.0248 8.59727 14.8021C8.33941 14.5794 7.98967 14.4543 7.625 14.4543C7.26033 14.4543 6.91059 14.5794 6.65273 14.8021C6.39487 15.0248 6.25 15.3268 6.25 15.6418C6.25 15.9567 6.39487 16.2588 6.65273 16.4815C6.91059 16.7042 7.26033 16.8293 7.625 16.8293ZM12.85 12.3168C12.85 12.6317 12.7051 12.9338 12.4473 13.1565C12.1894 13.3792 11.8397 13.5043 11.475 13.5043C11.1103 13.5043 10.7606 13.3792 10.5027 13.1565C10.2449 12.9338 10.1 12.6317 10.1 12.3168C10.1 12.0018 10.2449 11.6998 10.5027 11.4771C10.7606 11.2544 11.1103 11.1293 11.475 11.1293C11.8397 11.1293 12.1894 11.2544 12.4473 11.4771C12.7051 11.6998 12.85 12.0018 12.85 12.3168ZM11.475 16.8293C11.8397 16.8293 12.1894 16.7042 12.4473 16.4815C12.7051 16.2588 12.85 15.9567 12.85 15.6418C12.85 15.3268 12.7051 15.0248 12.4473 14.8021C12.1894 14.5794 11.8397 14.4543 11.475 14.4543C11.1103 14.4543 10.7606 14.5794 10.5027 14.8021C10.2449 15.0248 10.1 15.3268 10.1 15.6418C10.1 15.9567 10.2449 16.2588 10.5027 16.4815C10.7606 16.7042 11.1103 16.8293 11.475 16.8293ZM16.7 12.3168C16.7 12.6317 16.5551 12.9338 16.2973 13.1565C16.0394 13.3792 15.6897 13.5043 15.325 13.5043C14.9603 13.5043 14.6106 13.3792 14.3527 13.1565C14.0949 12.9338 13.95 12.6317 13.95 12.3168C13.95 12.0018 14.0949 11.6998 14.3527 11.4771C14.6106 11.2544 14.9603 11.1293 15.325 11.1293C15.6897 11.1293 16.0394 11.2544 16.2973 11.4771C16.5551 11.6998 16.7 12.0018 16.7 12.3168Z" fill="#6F6F6F"/>
<path fill-rule="evenodd" clip-rule="evenodd" d="M6.80491 1.62927C7.03591 1.62927 7.25744 1.72223 7.42078 1.88771C7.58412 2.05318 7.67588 2.27761 7.67588 2.51163V3.39398H15.2243V2.51163C15.2243 2.27761 15.316 2.05318 15.4794 1.88771C15.6427 1.72223 15.8642 1.62927 16.0952 1.62927C16.3262 1.62927 16.5478 1.72223 16.7111 1.88771C16.8744 2.05318 16.9662 2.27761 16.9662 2.51163V3.40339C17.1427 3.4081 17.3072 3.41672 17.4597 3.42927C17.901 3.46457 18.3145 3.54457 18.7058 3.74692C19.3068 4.05712 19.7955 4.55215 20.1017 5.16104C20.3014 5.55751 20.3804 5.97633 20.4152 6.42339C20.4501 6.8528 20.4501 7.37633 20.4501 8.00574V17.0175C20.4501 17.6469 20.4501 18.1704 20.4152 18.5999C20.3804 19.0469 20.3014 19.4657 20.1017 19.8622C19.7958 20.4709 19.3076 20.9659 18.707 21.2763C18.3145 21.4787 17.901 21.5587 17.4597 21.594C17.0359 21.6293 16.5191 21.6293 15.899 21.6293H7.00233C6.38104 21.6293 5.86427 21.6293 5.4404 21.594C4.9991 21.5587 4.58569 21.4787 4.19433 21.2763C3.59365 20.9667 3.10505 20.4726 2.79846 19.8646C2.59872 19.4669 2.51975 19.0481 2.48491 18.601C2.45007 18.1716 2.45007 17.6481 2.45007 17.0199V8.00574C2.45007 7.37633 2.45007 6.8528 2.48491 6.42339C2.51975 5.97633 2.59872 5.55751 2.79846 5.16104C3.10466 4.55215 3.5933 4.05712 4.19433 3.74692C4.58569 3.54457 4.9991 3.46457 5.4404 3.42927C5.59291 3.41672 5.75743 3.4081 5.93394 3.40339V2.51163C5.93394 2.39575 5.95647 2.28102 6.00024 2.17396C6.04401 2.06691 6.10817 1.96964 6.18904 1.88771C6.26992 1.80577 6.36594 1.74078 6.47161 1.69644C6.57728 1.6521 6.69053 1.62927 6.80491 1.62927ZM18.7081 9.86457H4.19201V16.9822C4.19201 17.6552 4.19201 18.1081 4.22104 18.4552C4.24775 18.794 4.29652 18.9552 4.34994 19.061C4.4893 19.3387 4.71111 19.5634 4.98517 19.7046C5.08969 19.7587 5.24878 19.8081 5.58207 19.8352C5.92581 19.8634 6.37175 19.8646 7.03717 19.8646H15.863C16.5272 19.8646 16.9743 19.8646 17.3169 19.8352C17.6514 19.8081 17.8105 19.7587 17.915 19.7046C18.1886 19.5635 18.411 19.3382 18.5502 19.061C18.6036 18.9552 18.6524 18.794 18.6791 18.4552C18.707 18.1081 18.7081 17.6552 18.7081 16.9822V9.86457ZM9.70814 6.04104C9.47714 6.04104 9.25561 6.134 9.09227 6.29947C8.92893 6.46495 8.83717 6.68938 8.83717 6.92339C8.83717 7.1574 8.92893 7.38183 9.09227 7.54731C9.25561 7.71278 9.47714 7.80574 9.70814 7.80574H13.192C13.423 7.80574 13.6445 7.71278 13.8079 7.54731C13.9712 7.38183 14.063 7.1574 14.063 6.92339C14.063 6.68938 13.9712 6.46495 13.8079 6.29947C13.6445 6.134 13.423 6.04104 13.192 6.04104H9.70814Z" fill="#6F6F6F"/>
</svg>
