<svg width="17" height="18" viewBox="0 0 17 18" fill="none" xmlns="http://www.w3.org/2000/svg">
<path d="M8.5 0.666656C9.60507 0.666656 10.6649 1.10564 11.4463 1.88704C12.2277 2.66845 12.6667 3.72825 12.6667 4.83332C12.6667 5.93839 12.2277 6.9982 11.4463 7.7796C10.6649 8.561 9.60507 8.99999 8.5 8.99999C7.39493 8.99999 6.33512 8.561 5.55372 7.7796C4.77232 6.9982 4.33333 5.93839 4.33333 4.83332C4.33333 3.72825 4.77232 2.66845 5.55372 1.88704C6.33512 1.10564 7.39493 0.666656 8.5 0.666656ZM8.5 17.3333C8.5 17.3333 16.8333 17.3333 16.8333 15.25C16.8333 12.75 12.7708 10.0417 8.5 10.0417C4.22916 10.0417 0.166664 12.75 0.166664 15.25C0.166664 17.3333 8.5 17.3333 8.5 17.3333Z" fill="#5D5D5D"/>
</svg>
