<svg width="16" height="17" viewBox="0 0 16 17" fill="none" xmlns="http://www.w3.org/2000/svg">
<path d="M6 2.86666V1.53333H10V2.86666H6ZM7.33333 10.2H8.66667V6.19999H7.33333V10.2ZM8 15.5333C7.17778 15.5333 6.40267 15.3751 5.67467 15.0587C4.94667 14.7422 4.31067 14.3115 3.76667 13.7667C3.22267 13.2218 2.79222 12.5855 2.47533 11.858C2.15844 11.1304 2 10.3555 2 9.53332C2 8.7111 2.15844 7.93599 2.47533 7.20799C2.79222 6.47999 3.22267 5.84399 3.76667 5.29999C4.31067 4.75599 4.94689 4.32555 5.67533 4.00866C6.40378 3.69177 7.17867 3.53333 8 3.53333C8.68889 3.53333 9.35 3.64444 9.98333 3.86666C10.6167 4.08888 11.2111 4.4111 11.7667 4.83332L12.7 3.89999L13.6333 4.83332L12.7 5.76666C13.1222 6.32221 13.4444 6.91666 13.6667 7.54999C13.8889 8.18332 14 8.84444 14 9.53332C14 10.3555 13.8416 11.1307 13.5247 11.8587C13.2078 12.5867 12.7773 13.2227 12.2333 13.7667C11.6893 14.3107 11.0531 14.7413 10.3247 15.0587C9.59622 15.376 8.82133 15.5342 8 15.5333Z" fill="#5D5D5D"/>
</svg>
